<svg xmlns="http://www.w3.org/2000/svg" viewBox="0 0 56.8 84.32"><defs><style>.cls-1{fill:#1167a5;}</style></defs><g id="Layer_2" data-name="Layer 2"><g id="Layer_1-2" data-name="Layer 1"><path class="cls-1" d="M6.66,54.25H9.83c.29,0,.57,0,.88,0,0-.36,0-.65.06-.93a5.25,5.25,0,0,1,4.61-5.1,12.74,12.74,0,0,1,2-.11c7.48,0,15,0,22.45,0a5.33,5.33,0,0,1,5.26,3.06,15.68,15.68,0,0,1,.63,2.58c0,.21.31.52.47.52,1.7,0,3.4.07,5.08-.07a3.2,3.2,0,0,0,3.17-3.59c0-2.16,0-4.31,0-6.47,0-1.81,0-3.63-.05-5.44-.09-2.05-1.12-3.26-2.88-3.42-1.2-.11-2.42-.08-3.62-.11H45.67c0,.46,0,.75-.08,1-.4,2.92-1.62,4.89-5,5.17-1.47.12-2.95,0-4.43,0H17.6c-.44,0-.87,0-1.31,0a5.47,5.47,0,0,1-5.52-5.64c0-.14,0-.27-.08-.44-1.61,0-3.18.1-4.74,0C2.81,35,1,33.21.58,30.1a12,12,0,0,1-.14-1.59c0-3.85,0-7.7,0-11.55,0-3.5,1.49-5.49,4.45-6.18a7.82,7.82,0,0,1,1.73-.23c1.32,0,2.66,0,4.08,0,0-.21,0-.38,0-.54.22-3.5,2.37-5.53,5.88-5.53H27.82c4.07,0,8.14,0,12.21,0A5.37,5.37,0,0,1,45.55,9c.09.52.11,1,.16,1.58h8.67V1.49c0-1,.41-1.49,1.2-1.49s1.24.38,1.22,1.45c0,3.34,0,6.68,0,10,0,1.13-.4,1.52-1.53,1.52H46.69c-1.22,0-1-.06-1.1,1-.26,2.77-1.62,4.52-4,5a12.47,12.47,0,0,1-2.59.22q-10.93,0-21.87-.09a11.5,11.5,0,0,1-1.31-.07,5.38,5.38,0,0,1-5-5.51,5.44,5.44,0,0,0-.07-.67c-1.28,0-2.54-.05-3.79,0a7.31,7.31,0,0,0-2.11.46,2.79,2.79,0,0,0-2,2.7c0,.77,0,1.55,0,2.32,0,3.64,0,7.27,0,10.9a3,3,0,0,0,2.05,3.17,14,14,0,0,0,5.83.37c0-.26.05-.45.06-.64.18-3.48,2.32-5.54,5.78-5.54H33.89c2.18,0,4.36,0,6.54,0a5.22,5.22,0,0,1,5,3.81,18.31,18.31,0,0,1,.39,2.28h.82c1.52,0,3,0,4.57,0a5.58,5.58,0,0,1,5.62,5.87q0,5.19,0,10.38a22.58,22.58,0,0,1-.14,2.47,5.31,5.31,0,0,1-5.35,5.07c-1.55.07-3.1.06-4.65,0-.78,0-1,.19-1.07,1-.23,3.09-1.83,4.82-4.76,5.21a14.86,14.86,0,0,1-1.89.07q-10.71,0-21.43-.06a13.76,13.76,0,0,1-1.81-.12,5.33,5.33,0,0,1-4.9-5.3c0-.24,0-.47-.07-.71H2.84v.76M41.69,34.78c-2,1.37-3.4,1.37-5.38,0l-.41-.29a2,2,0,0,0-2.62,0,9.49,9.49,0,0,1-1.72,1,4.17,4.17,0,0,1-4.17-.63c-.3-.21-.56-.47-.86-.67a1.57,1.57,0,0,0-1.78-.07c-.6.36-1.16.79-1.77,1.12a3.76,3.76,0,0,1-4.11-.11l-1.38-.93a1.8,1.8,0,0,0-2.22.12c-.58.42-1.2.79-1.78,1.22a.76.76,0,0,0-.3.5,2.68,2.68,0,0,0,1.94,2.58,20.61,20.61,0,0,0,3.43.27c2.1,0,4.19,0,6.29,0l11.4,0c1.33,0,2.66.06,4,0,1.91-.15,2.55-.79,2.92-2.88a17.16,17.16,0,0,0,.14-1.9l-.2-.15C42.62,34.24,42.14,34.48,41.69,34.78ZM41.43,13a3.8,3.8,0,0,1-4.72.05c-.39-.25-.76-.51-1.16-.75a1.76,1.76,0,0,0-2,.09c-.4.27-.79.57-1.2.82a4.34,4.34,0,0,1-5.08-.4c-1.35-1.13-1.85-1.14-3.3-.06a4.31,4.31,0,0,1-5.67.05c-1.64-1.17-2-1.15-3.62.12a2.48,2.48,0,0,1-.73.46c-.65.19-.72.57-.55,1.16a2.7,2.7,0,0,0,2.62,2c.69.06,1.4.05,2.1.05,5.81,0,11.62,0,17.43,0,1.42,0,2.85.09,4.28.06,2.49-.07,3.94-2.06,3.3-4.72C42.49,12.38,42,12.69,41.43,13Zm.24,43.58c-2,1.35-3.27,1.36-5.26,0-.16-.11-.32-.23-.48-.33a2,2,0,0,0-2.67,0,9,9,0,0,1-2.37,1.2,4.07,4.07,0,0,1-3.77-1c-1.2-1-1.83-1-3.08-.07a4.43,4.43,0,0,1-4.12,1,6.17,6.17,0,0,1-1.7-.94c-1.49-1.06-2-1.06-3.46.08a4.28,4.28,0,0,1-1,.64.62.62,0,0,0-.42.84,2.51,2.51,0,0,0,2,2.06,7.7,7.7,0,0,0,1.66.21q10.92,0,21.86,0c.51,0,1,0,1.52,0A2.7,2.7,0,0,0,43,58.11a19.92,19.92,0,0,0,.32-2.19l-.2-.15C42.64,56.05,42.13,56.3,41.67,56.62Z"/><path class="cls-1" d="M0,60.14c0,3.46,0,6.92,0,10.39,0,.82.06,1.64.14,2.46a5.31,5.31,0,0,0,5.36,5.07c1.55.07,3.1.06,4.65,0,.77,0,1,.19,1.07,1,.22,3.09,1.83,4.82,4.76,5.21a14.77,14.77,0,0,0,1.88.07q10.72,0,21.44-.06a13.49,13.49,0,0,0,1.8-.12,5.3,5.3,0,0,0,4.9-5.3c0-.24.05-.47.07-.71H54c0,.29,2.4-.84,2.4-.84,0-1.19-.38-1.58-1.55-1.58H47c-.28,0-.57,0-.88,0,0-.36,0-.65,0-.93a5.26,5.26,0,0,0-4.62-5.1,11.54,11.54,0,0,0-1.95-.1q-11.22,0-22.45,0a5.35,5.35,0,0,0-5.27,3.06,16.74,16.74,0,0,0-.62,2.58c-.06.21-.31.52-.48.52a50.65,50.65,0,0,1-5.08-.07C3.45,75.45,2.39,74.15,2.39,72s0-4.31,0-6.47c0-1.81,0-3.63,0-5.44.09-2.05,1.12-3.26,2.88-3.42.44,0,.88-.06,1.32-.07v-2.4c-.34,0-.69,0-1,0A5.59,5.59,0,0,0,0,60.14ZM13.67,77.23c.49.28,1,.53,1.46.85,2,1.35,3.27,1.36,5.26,0l.48-.33a2,2,0,0,1,2.67,0A8.68,8.68,0,0,0,25.91,79a4.08,4.08,0,0,0,3.77-1c1.19-1,1.82-1,3.08-.07a4.43,4.43,0,0,0,4.12,1A6.12,6.12,0,0,0,38.57,78c1.5-1.06,2-1.06,3.46.08a4.9,4.9,0,0,0,1,.65.6.6,0,0,1,.43.83,2.52,2.52,0,0,1-2,2.06,7.69,7.69,0,0,1-1.65.21L18,81.85c-.51,0-1,0-1.53,0a2.72,2.72,0,0,1-2.68-2.24c-.17-.71-.22-1.46-.32-2.19Z"/><path class="cls-1" d="M55.2,84.09h0A1.13,1.13,0,0,0,56.36,83V77.29H54.07V83A1.12,1.12,0,0,0,55.2,84.09Z"/></g></g></svg>