<svg xmlns="http://www.w3.org/2000/svg" viewBox="0 0 55.81 55.78"><defs><style>.cls-1{fill:#1167a5;}</style></defs><g id="Layer_2" data-name="Layer 2"><g id="Layer_1-2" data-name="Layer 1"><path class="cls-1" d="M47.44,33.65,51.36,35A92.84,92.84,0,0,1,43.66,52c-1.86,3.3-4.06,4.33-7.78,3.58C25.35,53.42,16,49.18,8.69,41.13c-.33-.36-.79-.68-.95-1.11-.35-.91-1-2.06-.66-2.76s1.56-1.11,2.47-1.33c3.75-.89,7.6-1.4,11.26-2.54a17.31,17.31,0,0,0,9.78-7.91l3.66,2.08C29.63,35.49,22,38.2,13.29,39.94a57.75,57.75,0,0,0,5.07,3.89c.56.35,1.67,0,2.44-.27,1.19-.42,2.3-1.06,4-1.85l-3.06,4.11c4.24,3.18,6.16,3.29,10.47.45,1.49-1,2.86-2.12,4.58-3.05l-4.31,7.23c2,.34,3.82.75,5.69.92.45,0,1.18-.62,1.44-1.13,2.47-5,4.86-10,7.27-15.07C47.06,34.73,47.21,34.27,47.44,33.65Z"/><path class="cls-1" d="M52.65,31.32l-20.19-9a6.21,6.21,0,0,1,8.11-3.61c3.14,1.22,6.23,2.61,9.23,4.13S53.91,27.65,52.65,31.32Z"/><path class="cls-1" d="M49.7,19.4,46.44,18l-3.29-1.51C45.92,11.26,48.64,6.11,51.4,1c.68-1.26,1.78-1.14,2.87-.6S56.16,1.59,55.66,3Z"/><path class="cls-1" d="M17.09,24.89A5.33,5.33,0,0,1,11.66,30a5.39,5.39,0,0,1-5.19-5.58,5.49,5.49,0,0,1,5.47-5.15A5.38,5.38,0,0,1,17.09,24.89Z"/><path class="cls-1" d="M3.45,8.54a3.2,3.2,0,0,1,2.87,3.6,3.1,3.1,0,0,1-3.5,2.73A3.18,3.18,0,0,1,0,11.41,3.25,3.25,0,0,1,3.45,8.54Z"/><path class="cls-1" d="M12.32,10.65c1.92.19,2.66.91,2.62,2.21a1.86,1.86,0,0,1-2.1,2c-1.35,0-2.19-.92-2-2.09C11,11.92,11.92,11.19,12.32,10.65Z"/></g></g></svg>