<svg xmlns="http://www.w3.org/2000/svg" viewBox="0 0 58.39 59.6"><defs><style>.cls-1{fill:#1167a5;}</style></defs><g id="Layer_2" data-name="Layer 2"><g id="Layer_1-2" data-name="Layer 1"><path class="cls-1" d="M0,45.21V34.35a2.22,2.22,0,0,1,2.26-2.47,2.22,2.22,0,0,0,2.16-2.34V24.6a1.23,1.23,0,0,0-1.27-1.44,1.12,1.12,0,0,1-1.1-1c0-1.25,0-2.52.06-3.77a4.64,4.64,0,0,1,1.44-2.53c.42-.5.86-1,1.26-1.53A.82.82,0,0,1,5.55,14H20.19a.93.93,0,0,1,.82.38c.57.72,1.17,1.42,1.75,2.13a4.05,4.05,0,0,1,1,2.76c0,.87,0,1.75,0,2.62a1.18,1.18,0,0,1-1.13,1.27c-.91.13-1.25.5-1.25,1.4,0,1.65,0,3.3,0,4.95a2.19,2.19,0,0,0,2.25,2.38,2.18,2.18,0,0,1,2.15,2.33q0,9.67,0,19.35c0,.84,0,1.68,0,2.52a3.29,3.29,0,0,1-3.49,3.5c-6.25,0-12.51,0-18.76,0A3.44,3.44,0,0,1,0,56C0,52.42,0,48.81,0,45.21Zm20.85-.1c0-1.83,0-3.66,0-5.48A2.7,2.7,0,0,0,18.1,36.8c-3.48,0-7,0-10.43,0A2.7,2.7,0,0,0,5,39.56c0,3.7,0,7.41,0,11.11a2.71,2.71,0,0,0,2.83,2.8H18a2.71,2.71,0,0,0,2.84-2.88C20.86,48.76,20.86,46.94,20.86,45.11Z"/><path class="cls-1" d="M25.39,17.48l-1.28-2.26c7.36-4.16,19-3.82,27,3.86A23.5,23.5,0,0,1,27.26,58.29l.38-2.65a20.73,20.73,0,0,0,16.84-1.09A20.27,20.27,0,0,0,53.2,46a20.85,20.85,0,0,0-27.81-28.5Z"/><path class="cls-1" d="M23.15,29.49c0-1.13,0-2.26,0-3.38a.63.63,0,0,1,.17-.38,15.19,15.19,0,0,1,10.15-5.08,14.9,14.9,0,0,1,11.38,3.59,15.07,15.07,0,0,1,5.47,12.7A15.46,15.46,0,0,1,35.58,51.55,15.87,15.87,0,0,1,28,50a.65.65,0,0,1-.43-.7c0-.65,0-1.29,0-2a13.27,13.27,0,0,0,13.13.8A12.89,12.89,0,0,0,47.3,40.9,13.29,13.29,0,0,0,41,24.23,13.48,13.48,0,0,0,23.15,29.49Z"/><path class="cls-1" d="M15.49,7.27h1.28A1.77,1.77,0,0,1,18.62,9.1c0,1,0,1.9,0,2.89H7.2c0-1.08-.07-2.15,0-3.2A1.71,1.71,0,0,1,9,7.27h1.31c0-.76,0-1.48,0-2.2a2.45,2.45,0,0,1,1.59-2.34,2.44,2.44,0,0,1,2.71.48,2.62,2.62,0,0,1,.87,1.93C15.5,5.83,15.49,6.53,15.49,7.27Z"/><path class="cls-1" d="M46.52,7.26C47.82,7.12,49.14,7,50.1,6s1-2.31,1.12-3.58A5.85,5.85,0,0,0,52.35,6c.94,1,2.24,1.12,3.53,1.29A11,11,0,0,0,54,7.56a4.15,4.15,0,0,0-1.68.87,4.24,4.24,0,0,0-.84,1.7,13.69,13.69,0,0,0-.31,2C51,10.79,51,9.46,50.09,8.46S47.79,7.43,46.52,7.26Z"/><path class="cls-1" d="M37.86,35.59c-.27-3.61-1.07-4.65-4.8-4.88,3.57-.3,4.62-1.37,4.81-5,.24,3.88,1.47,4.69,4.84,5-.7.09-1.32.15-1.93.26a3,3,0,0,0-2.62,2.55C38,34.21,38,34.93,37.86,35.59Z"/><path class="cls-1" d="M33,3.81c2.45-.07,3.73-1.26,3.7-3.81C36.8,2.48,38,3.76,40.48,3.79,37.87,4,37,4.6,36.75,7.51a4.58,4.58,0,0,0-.9-2.75A4.17,4.17,0,0,0,33,3.81Z"/></g></g></svg>