<svg xmlns="http://www.w3.org/2000/svg" viewBox="0 0 54.19 60.31"><defs><style>.cls-1{fill:#1167a5;}.cls-2{fill:#fc1b36;}</style></defs><g id="Layer_2" data-name="Layer 2"><g id="Layer_1-2" data-name="Layer 1"><path class="cls-1" d="M30.38,4.81l1.06.25C34.87,6,34.87,6,35,9.59c.2,5.58,4.06,9.43,11,10.6,0,3.21.2,6.54-.06,9.83-.3,4,.61,7.31,3.78,10a22.75,22.75,0,0,1,3.78,4.23A3.47,3.47,0,0,1,54.08,47a3.09,3.09,0,0,1-2.4,1.14q-24.55.09-49.1,0A3.16,3.16,0,0,1,.1,46.84a3.27,3.27,0,0,1,.69-2.72c1.79-2.24,4-4.21,5.66-6.51a8.94,8.94,0,0,0,1.7-4.4c.26-3.26.09-6.54.1-9.82,0-8.85,5.3-15.74,13.92-18.17C23.1,5,24,4.94,24,3.46,24,1.14,25.15,0,27.09,0s3.1,1.3,3.22,3.63C30.33,4,30.35,4.28,30.38,4.81Z"/><path class="cls-2" d="M53.9,9.17a8,8,0,1,1-16-.25,7.73,7.73,0,0,1,8-7.83A7.74,7.74,0,0,1,53.9,9.17ZM45.19,7.83c0,1.53-.07,3.29.05,5.05A1.62,1.62,0,0,0,46.3,14c.41,0,1.23-.59,1.25-.95.1-2.92.05-5.84.05-8.81C45,3.71,44,5.66,42.51,6.66l0,.67Z"/><path class="cls-1" d="M18.72,52.05h16.8A8.14,8.14,0,0,1,27,60.31C22.22,60.22,18.26,56.33,18.72,52.05Z"/></g></g></svg>