<svg xmlns="http://www.w3.org/2000/svg" viewBox="0 0 60.77 60.77"><defs><style>.cls-1{fill:#1167a5;}</style></defs><g id="Layer_2" data-name="Layer 2"><g id="Layer_1-2" data-name="Layer 1"><path class="cls-1" d="M59,28.83a7.33,7.33,0,0,1-5.38-2.1V8.93a8.93,8.93,0,0,0-17.86,0v17.8a7.85,7.85,0,0,1-11.16-.45,1.79,1.79,0,0,0-2.71,0,7.82,7.82,0,0,1-11.59,0,1.78,1.78,0,0,0-2.8.11,7.3,7.3,0,0,1-5.7,2.44,1.79,1.79,0,1,0,0,3.57,11.13,11.13,0,0,0,7.15-2.46,11.59,11.59,0,0,0,14.3,0,11.69,11.69,0,0,0,12.51,1.19V36a14,14,0,1,0,17.86,0V31.12A11.39,11.39,0,0,0,59,32.4a1.79,1.79,0,1,0,0-3.57ZM44.68,3.57A5.37,5.37,0,0,1,50,8.93V26.75a7,7,0,0,1-3.57,1.9V11.49a1.79,1.79,0,0,0-3.57,0V28.65a7,7,0,0,1-3.57-1.91V8.93a5.36,5.36,0,0,1,5.35-5.36Zm0,40.94a2.28,2.28,0,1,1-2.27,2.27A2.28,2.28,0,0,1,44.68,44.51Zm10.45,2.24a10.45,10.45,0,1,1-16.54-8.47,1.81,1.81,0,0,0,.74-1.45v-5.7a10.68,10.68,0,0,0,3.57,1.14v8.94a5.85,5.85,0,1,0,3.57,0V32.27A11,11,0,0,0,50,31.14v5.69a1.79,1.79,0,0,0,.74,1.45A10.48,10.48,0,0,1,55.13,46.75Z"/><path class="cls-1" d="M21.23,36.74A5.37,5.37,0,1,0,26.6,42.1,5.37,5.37,0,0,0,21.23,36.74Zm0,7.15A1.79,1.79,0,1,1,23,42.1,1.79,1.79,0,0,1,21.23,43.89Z"/><path class="cls-1" d="M8.8,45.18a5.36,5.36,0,1,0,5.36,5.36A5.36,5.36,0,0,0,8.8,45.18Zm0,7.15a1.79,1.79,0,1,1,1.79-1.79A1.8,1.8,0,0,1,8.8,52.33Z"/><path class="cls-1" d="M7.73,18.37a1.79,1.79,0,0,0,0,2.53,1.8,1.8,0,0,0,2.53,0,6.46,6.46,0,0,0,0-9.1,2.85,2.85,0,0,1,0-4A1.79,1.79,0,1,0,7.73,5.23a6.44,6.44,0,0,0,0,9.1A2.87,2.87,0,0,1,7.73,18.37Z"/><path class="cls-1" d="M17,18.37a1.79,1.79,0,0,0,0,2.53,1.8,1.8,0,0,0,2.53,0,6.44,6.44,0,0,0,0-9.1,2.85,2.85,0,0,1,0-4A1.79,1.79,0,0,0,17,5.23a6.44,6.44,0,0,0,0,9.1A2.85,2.85,0,0,1,17,18.37Z"/><path class="cls-1" d="M26.17,18.37a1.79,1.79,0,0,0,0,2.53,1.8,1.8,0,0,0,2.53,0,6.44,6.44,0,0,0,0-9.1,2.85,2.85,0,0,1,0-4,1.79,1.79,0,1,0-2.53-2.53,6.44,6.44,0,0,0,0,9.1A2.85,2.85,0,0,1,26.17,18.37Z"/></g></g></svg>