<svg xmlns="http://www.w3.org/2000/svg" viewBox="0 0 51.03 78.45"><defs><style>.cls-1{fill:none;stroke:#1167a5;stroke-miterlimit:10;stroke-width:1.46px;}.cls-2{fill:#1167a5;}.cls-3{fill:#fff;}</style></defs><g id="Layer_2" data-name="Layer 2"><g id="Layer_1-2" data-name="Layer 1"><path class="cls-1" d="M15.43,6.59H46.18a4.13,4.13,0,0,1,4.13,4.13v67a0,0,0,0,1,0,0h-39a0,0,0,0,1,0,0v-67A4.13,4.13,0,0,1,15.43,6.59Z"/><polyline class="cls-1" points="11.3 36.09 14.63 36.46 47.07 36.46 50.3 35.41"/><polyline class="cls-1" points="11.3 29.63 14.63 30 47.07 30 50.3 28.94"/><polyline class="cls-1" points="11.3 70.15 14.75 70.86 46.66 70.5 50.3 69.31"/><path class="cls-2" d="M19.89,42.16h1.29v9.77h5.46V42.16h1.29v-5.7h-8ZM26.13,47H21.69V42.16h4.44Z"/><path class="cls-2" d="M41.71,36.46h-8v5.7H35v9.77h5.46V42.16h1.28ZM39.92,47H35.48V42.16h4.44Z"/><line class="cls-1" x1="14.05" y1="15.91" x2="14.05" y2="30"/><line class="cls-1" x1="14.29" y1="70.82" x2="14.29" y2="77.56"/><line class="cls-1" x1="46.81" y1="70.82" x2="46.81" y2="77.56"/><line class="cls-1" x1="47.23" y1="15.91" x2="47.23" y2="30"/><path class="cls-3" d="M9.73,18.8c0-6-7.59-8.93-7.67-9L0,9.07l2.17-.32C9.62,7.62,9.73.31,9.73,0h1.13c0,.31.11,7.62,7.56,8.75l2.18.32-2.07.77c-.07,0-7.67,2.92-7.67,9Z"/><path class="cls-2" d="M10.3,1.34s0,6.94-6.9,8c0,0,6.9,2.55,6.9,8.14,0-5.59,6.9-8.14,6.9-8.14C10.3,8.28,10.3,1.34,10.3,1.34Z"/></g></g></svg>