<svg xmlns="http://www.w3.org/2000/svg" viewBox="0 0 47.31 67.35"><defs><style>.cls-1{fill:#1167a5;}</style></defs><g id="Layer_2" data-name="Layer 2"><g id="Layer_1-2" data-name="Layer 1"><path class="cls-1" d="M0,33.65V3.43A3.11,3.11,0,0,1,3.41,0h10.1a2,2,0,0,1,2.3,2.3c0,.54,0,1.08,0,1.62a1.86,1.86,0,0,1-1.09,1.69.52.52,0,0,0-.34.58c0,.25,0,.5,0,.76v54c0,.42,0,.7.48.91a1.7,1.7,0,0,1,.94,1.52c0,.72,0,1.45,0,2.17a1.9,1.9,0,0,1-1.88,1.82c-3.67,0-7.34,0-11,0A3,3,0,0,1,0,64.52c0-.22,0-.44,0-.66ZM12.63,5.84H9c-1,0-1.12.15-1.12,1.1V60.46a2.67,2.67,0,0,0,0,.4c0,.36.25.62.62.62,1.36,0,2.71,0,4.1,0Z"/><path class="cls-1" d="M25.47,33V30.61c0-.69.31-1.08.85-1.08s.87.39.87,1.07c0,1.48,0,3,0,4.44a4.68,4.68,0,0,0,.19,1.29A1.54,1.54,0,0,0,29,37.53a1.56,1.56,0,0,0,1.64-1.23A5.48,5.48,0,0,0,30.8,35c0-1.48,0-3,0-4.45,0-.62.32-1,.84-1a.83.83,0,0,1,.87.86c0,1.84.06,3.68-.09,5.5a3.5,3.5,0,0,1-5.19,2.77,3.4,3.4,0,0,1-1.74-3.1c-.05-.85,0-1.72,0-2.57Z"/><path class="cls-1" d="M38.09,36.27c.1-.25.16-.4.21-.55.62-1.83,1.23-3.66,1.86-5.49a.86.86,0,0,1,1.3-.57.82.82,0,0,1,.34,1l-2.67,7.45a1.05,1.05,0,0,1-1.1.74A1.06,1.06,0,0,1,37,38.1q-1.22-3.7-2.42-7.43a.83.83,0,0,1,.52-1.1.88.88,0,0,1,1.13.64L38,36S38,36.1,38.09,36.27Z"/><path class="cls-1" d="M39.52,62.49c-1.23-.3-2.51-.59-3.78-.92a.81.81,0,0,1-.51-1A.85.85,0,0,1,36.31,60c1.17.26,2.33.54,3.49.81a1.13,1.13,0,0,1,.28.12.8.8,0,0,1,.38,1A.88.88,0,0,1,39.52,62.49Z"/><path class="cls-1" d="M36.23,8.81a.92.92,0,0,1-1-.68.81.81,0,0,1,.55-1c1.26-.32,2.51-.62,3.78-.89a.76.76,0,0,1,.92.6.77.77,0,0,1-.45,1C38.71,8.23,37.4,8.52,36.23,8.81Z"/><path class="cls-1" d="M27.29,57.86l2.65.61c.36.09.72.16,1.08.27a.83.83,0,0,1,.62,1,.81.81,0,0,1-1,.65c-1.23-.27-2.46-.55-3.68-.86a.79.79,0,0,1-.6-1A.87.87,0,0,1,27.29,57.86Z"/><path class="cls-1" d="M31.66,9.29A.78.78,0,0,1,31,10c-1.23.3-2.45.59-3.68.85a.81.81,0,0,1-1-.61.82.82,0,0,1,.53-1c1.25-.32,2.51-.61,3.78-.88C31.22,8.24,31.66,8.67,31.66,9.29Z"/><path class="cls-1" d="M39.41,49.26c-1.07-.15-2.3-.32-3.53-.51a.84.84,0,0,1,.23-1.66q1.85.22,3.69.51a.78.78,0,0,1,.67,1C40.4,49,40.06,49.27,39.41,49.26Z"/><path class="cls-1" d="M36.29,21.66c-.66,0-1-.26-1.09-.74a.82.82,0,0,1,.72-.93c1.22-.19,2.43-.36,3.65-.51a.84.84,0,0,1,.23,1.67C38.59,21.34,37.38,21.5,36.29,21.66Z"/><path class="cls-1" d="M30.6,48c-1.1-.15-2.32-.31-3.53-.5a.81.81,0,0,1-.68-1,.82.82,0,0,1,.94-.72c1.2.16,2.4.32,3.59.5a.83.83,0,0,1,.73,1C31.59,47.78,31.23,48.06,30.6,48Z"/><path class="cls-1" d="M30.65,20.71c.62,0,1,.3,1,.74a.79.79,0,0,1-.67.92c-1.24.2-2.49.37-3.74.52A.84.84,0,0,1,27,21.24C28.26,21,29.52,20.87,30.65,20.71Z"/><path class="cls-1" d="M20.58,12.47c-.58,0-.93-.26-1-.69a.76.76,0,0,1,.5-.93,13.52,13.52,0,0,1,1.86-.43.78.78,0,0,1,.87.68.77.77,0,0,1-.5.93C21.69,12.23,21.06,12.35,20.58,12.47Z"/><path class="cls-1" d="M20.46,23.86a.89.89,0,0,1-.91-.77.83.83,0,0,1,.63-.91,17.51,17.51,0,0,1,1.75-.24.84.84,0,0,1,.23,1.67C21.59,23.72,21,23.78,20.46,23.86Z"/><path class="cls-1" d="M45.07,48.31c.45.07,1,.13,1.55.23a.85.85,0,0,1-.22,1.68c-.55,0-1.1-.13-1.64-.22a.87.87,0,0,1-.75-.93C44.07,48.59,44.45,48.29,45.07,48.31Z"/><path class="cls-1" d="M21.87,46.82c-.52-.08-1.07-.13-1.62-.23a.86.86,0,0,1-.69-1,.84.84,0,0,1,.94-.72c.53.05,1.07.13,1.6.22a.86.86,0,0,1,.75.92A.87.87,0,0,1,21.87,46.82Z"/><path class="cls-1" d="M47.31,5.56a.83.83,0,0,1-.67.8c-.52.13-1,.26-1.57.36a.85.85,0,0,1-.41-1.65c.55-.15,1.11-.29,1.67-.39A.85.85,0,0,1,47.31,5.56Z"/><path class="cls-1" d="M45,20.44a.9.9,0,0,1-1-.72.82.82,0,0,1,.65-.94,13.52,13.52,0,0,1,1.79-.25.85.85,0,0,1,.2,1.67C46.08,20.31,45.49,20.37,45,20.44Z"/><path class="cls-1" d="M21.83,58.34c-.54-.13-1.14-.25-1.72-.42a.81.81,0,0,1-.54-1,.78.78,0,0,1,.87-.67,12.88,12.88,0,0,1,1.86.43.78.78,0,0,1,.49,1A.87.87,0,0,1,21.83,58.34Z"/><path class="cls-1" d="M47.31,63.19a.85.85,0,0,1-1,.87c-.53-.1-1.05-.23-1.57-.37A.85.85,0,1,1,45.12,62c.51.11,1,.22,1.52.35A.84.84,0,0,1,47.31,63.19Z"/><path class="cls-1" d="M45.66,33.53c.28,0,.57,0,.86,0a.83.83,0,0,1,.79.87.82.82,0,0,1-.8.81c-.57,0-1.15,0-1.72,0a.84.84,0,0,1,0-1.67c.3,0,.61,0,.91,0Z"/><path class="cls-1" d="M21.18,35.21c-.29,0-.58,0-.86,0a.83.83,0,0,1-.77-.84.82.82,0,0,1,.73-.83,16.49,16.49,0,0,1,1.86,0,.79.79,0,0,1,.72.88.81.81,0,0,1-.78.78C21.78,35.23,21.48,35.21,21.18,35.21Z"/></g></g></svg>